<mxfile host="65bd71144e">
    <diagram id="mc3KU3QQjBFrrzWoP9hT" name="PÃ¡gina-1">
        <mxGraphModel dx="1489" dy="411" grid="1" gridSize="10" guides="1" tooltips="1" connect="1" arrows="1" fold="1" page="1" pageScale="1" pageWidth="827" pageHeight="1169" math="0" shadow="0">
            <root>
                <mxCell id="0"/>
                <mxCell id="1" parent="0"/>
                <mxCell id="4" value="" style="edgeStyle=none;html=1;" parent="1" source="2" target="3" edge="1">
                    <mxGeometry relative="1" as="geometry"/>
                </mxCell>
                <mxCell id="2" value="&lt;font color=&quot;#000000&quot;&gt;INICIO&lt;/font&gt;" style="ellipse;whiteSpace=wrap;html=1;fillColor=#1ba1e2;fontColor=#ffffff;strokeColor=#006EAF;" parent="1" vertex="1">
                    <mxGeometry x="210" width="120" height="80" as="geometry"/>
                </mxCell>
                <mxCell id="6" value="" style="edgeStyle=none;html=1;fontColor=#000000;entryX=0.5;entryY=0;entryDx=0;entryDy=0;" parent="1" source="3" target="5" edge="1">
                    <mxGeometry relative="1" as="geometry">
                        <mxPoint x="270" y="260" as="targetPoint"/>
                    </mxGeometry>
                </mxCell>
                <mxCell id="3" value="&lt;font color=&quot;#000000&quot;&gt;x,y&lt;br&gt;&lt;/font&gt;" style="shape=parallelogram;perimeter=parallelogramPerimeter;whiteSpace=wrap;html=1;fixedSize=1;fillColor=#d80073;fontColor=#ffffff;strokeColor=#A50040;" parent="1" vertex="1">
                    <mxGeometry x="210" y="170" width="120" height="60" as="geometry"/>
                </mxCell>
                <mxCell id="5" value="x == y" style="rhombus;whiteSpace=wrap;html=1;fontColor=#ffffff;fillColor=#6a00ff;strokeColor=#3700CC;" parent="1" vertex="1">
                    <mxGeometry x="230" y="270" width="80" height="80" as="geometry"/>
                </mxCell>
                <mxCell id="8" value="" style="endArrow=none;html=1;fontColor=#000000;exitX=0.5;exitY=0;exitDx=0;exitDy=0;" parent="1" edge="1" source="42">
                    <mxGeometry width="50" height="50" relative="1" as="geometry">
                        <mxPoint x="380" y="340" as="sourcePoint"/>
                        <mxPoint x="420" y="310" as="targetPoint"/>
                    </mxGeometry>
                </mxCell>
                <mxCell id="36" value="" style="endArrow=none;html=1;fontColor=#000000;entryX=1;entryY=0.5;entryDx=0;entryDy=0;" edge="1" parent="1" target="5">
                    <mxGeometry width="50" height="50" relative="1" as="geometry">
                        <mxPoint x="420" y="310" as="sourcePoint"/>
                        <mxPoint x="300" y="330" as="targetPoint"/>
                    </mxGeometry>
                </mxCell>
                <mxCell id="37" value="&lt;font color=&quot;#000000&quot;&gt;FIN&lt;/font&gt;" style="ellipse;whiteSpace=wrap;html=1;fillColor=#1ba1e2;fontColor=#ffffff;strokeColor=#006EAF;" vertex="1" parent="1">
                    <mxGeometry x="200" y="800" width="120" height="80" as="geometry"/>
                </mxCell>
                <mxCell id="38" value="&lt;font color=&quot;#000000&quot;&gt;MAYOR&lt;/font&gt;" style="shape=document;whiteSpace=wrap;html=1;boundedLbl=1;fontColor=#ffffff;fillColor=#0050ef;strokeColor=#001DBC;" vertex="1" parent="1">
                    <mxGeometry x="70" y="600" width="120" height="70" as="geometry"/>
                </mxCell>
                <mxCell id="39" value="Mayor = x" style="rounded=0;whiteSpace=wrap;html=1;fontColor=#ffffff;fillColor=#a20025;strokeColor=#6F0000;" vertex="1" parent="1">
                    <mxGeometry x="160" y="440" width="120" height="40" as="geometry"/>
                </mxCell>
                <mxCell id="40" value="Mayor = y" style="rounded=0;whiteSpace=wrap;html=1;fontColor=#ffffff;fillColor=#a20025;strokeColor=#6F0000;" vertex="1" parent="1">
                    <mxGeometry x="-20" y="440" width="120" height="40" as="geometry"/>
                </mxCell>
                <mxCell id="41" value="x &amp;gt; y" style="rhombus;whiteSpace=wrap;html=1;fontColor=#ffffff;fillColor=#6a00ff;strokeColor=#3700CC;" vertex="1" parent="1">
                    <mxGeometry x="90" y="360" width="80" height="80" as="geometry"/>
                </mxCell>
                <mxCell id="42" value="son iguales" style="rounded=0;whiteSpace=wrap;html=1;fontColor=#ffffff;fillColor=#e51400;strokeColor=#B20000;" vertex="1" parent="1">
                    <mxGeometry x="360" y="360" width="120" height="40" as="geometry"/>
                </mxCell>
                <mxCell id="43" value="" style="endArrow=none;html=1;fontColor=#000000;entryX=0;entryY=0.5;entryDx=0;entryDy=0;" edge="1" parent="1" target="5">
                    <mxGeometry width="50" height="50" relative="1" as="geometry">
                        <mxPoint x="130" y="310" as="sourcePoint"/>
                        <mxPoint x="370" y="470" as="targetPoint"/>
                    </mxGeometry>
                </mxCell>
                <mxCell id="44" value="" style="endArrow=none;html=1;fontColor=#000000;" edge="1" parent="1">
                    <mxGeometry width="50" height="50" relative="1" as="geometry">
                        <mxPoint x="130" y="360" as="sourcePoint"/>
                        <mxPoint x="130" y="310" as="targetPoint"/>
                    </mxGeometry>
                </mxCell>
                <mxCell id="45" value="" style="endArrow=none;html=1;exitX=1;exitY=0.5;exitDx=0;exitDy=0;" edge="1" parent="1" source="41">
                    <mxGeometry width="50" height="50" relative="1" as="geometry">
                        <mxPoint x="270" y="440" as="sourcePoint"/>
                        <mxPoint x="220" y="400" as="targetPoint"/>
                    </mxGeometry>
                </mxCell>
                <mxCell id="46" value="" style="endArrow=none;html=1;entryX=0;entryY=0.5;entryDx=0;entryDy=0;" edge="1" parent="1" target="41">
                    <mxGeometry width="50" height="50" relative="1" as="geometry">
                        <mxPoint x="40" y="400" as="sourcePoint"/>
                        <mxPoint x="320" y="390" as="targetPoint"/>
                    </mxGeometry>
                </mxCell>
                <mxCell id="47" value="" style="endArrow=none;html=1;" edge="1" parent="1">
                    <mxGeometry width="50" height="50" relative="1" as="geometry">
                        <mxPoint x="220" y="440" as="sourcePoint"/>
                        <mxPoint x="220" y="400" as="targetPoint"/>
                    </mxGeometry>
                </mxCell>
                <mxCell id="48" value="" style="endArrow=none;html=1;" edge="1" parent="1">
                    <mxGeometry width="50" height="50" relative="1" as="geometry">
                        <mxPoint x="40" y="440" as="sourcePoint"/>
                        <mxPoint x="40" y="400" as="targetPoint"/>
                    </mxGeometry>
                </mxCell>
                <mxCell id="49" value="" style="endArrow=none;html=1;entryX=0.5;entryY=1;entryDx=0;entryDy=0;" edge="1" parent="1" target="40">
                    <mxGeometry width="50" height="50" relative="1" as="geometry">
                        <mxPoint x="40" y="530" as="sourcePoint"/>
                        <mxPoint x="320" y="490" as="targetPoint"/>
                    </mxGeometry>
                </mxCell>
                <mxCell id="50" value="" style="endArrow=none;html=1;entryX=0.5;entryY=1;entryDx=0;entryDy=0;" edge="1" parent="1" target="39">
                    <mxGeometry width="50" height="50" relative="1" as="geometry">
                        <mxPoint x="220" y="530" as="sourcePoint"/>
                        <mxPoint x="320" y="490" as="targetPoint"/>
                    </mxGeometry>
                </mxCell>
                <mxCell id="51" value="" style="endArrow=none;html=1;" edge="1" parent="1">
                    <mxGeometry width="50" height="50" relative="1" as="geometry">
                        <mxPoint x="40" y="530" as="sourcePoint"/>
                        <mxPoint x="220" y="530" as="targetPoint"/>
                    </mxGeometry>
                </mxCell>
                <mxCell id="52" value="" style="endArrow=classic;html=1;entryX=0.5;entryY=0;entryDx=0;entryDy=0;" edge="1" parent="1" target="38">
                    <mxGeometry width="50" height="50" relative="1" as="geometry">
                        <mxPoint x="130" y="530" as="sourcePoint"/>
                        <mxPoint x="130" y="590" as="targetPoint"/>
                    </mxGeometry>
                </mxCell>
                <mxCell id="55" value="" style="endArrow=none;html=1;entryX=0.5;entryY=1;entryDx=0;entryDy=0;" edge="1" parent="1" target="42">
                    <mxGeometry width="50" height="50" relative="1" as="geometry">
                        <mxPoint x="420" y="750" as="sourcePoint"/>
                        <mxPoint x="370" y="390" as="targetPoint"/>
                    </mxGeometry>
                </mxCell>
                <mxCell id="56" value="" style="endArrow=none;html=1;" edge="1" parent="1">
                    <mxGeometry width="50" height="50" relative="1" as="geometry">
                        <mxPoint x="130" y="750" as="sourcePoint"/>
                        <mxPoint x="420" y="750" as="targetPoint"/>
                    </mxGeometry>
                </mxCell>
                <mxCell id="57" value="" style="endArrow=none;html=1;entryX=0.5;entryY=0.914;entryDx=0;entryDy=0;entryPerimeter=0;" edge="1" parent="1" target="38">
                    <mxGeometry width="50" height="50" relative="1" as="geometry">
                        <mxPoint x="130" y="750" as="sourcePoint"/>
                        <mxPoint x="430" y="760" as="targetPoint"/>
                    </mxGeometry>
                </mxCell>
                <mxCell id="62" value="" style="endArrow=classic;html=1;entryX=0.5;entryY=0;entryDx=0;entryDy=0;" edge="1" parent="1" target="37">
                    <mxGeometry width="50" height="50" relative="1" as="geometry">
                        <mxPoint x="260" y="750" as="sourcePoint"/>
                        <mxPoint x="370" y="650" as="targetPoint"/>
                    </mxGeometry>
                </mxCell>
            </root>
        </mxGraphModel>
    </diagram>
</mxfile>